<svg xmlns:xlink="http://www.w3.org/1999/xlink" version="1.1" xmlns="http://www.w3.org/2000/svg" width="23" height="23" x="0px" y="0px" viewBox="0 0 23 23" style="enable-background:new 0 0 23 23;" xml:space="preserve"><path fill="white" d="M20,9.5c-0.1-0.4-0.4-0.6-0.8-0.5c-0.3,0-0.4,0.2-0.5,0.5c-1,3.1-3.1,5-6,5.5l0-1.2c1.5-0.2,2.9-0.9,4-2c1.3-1.3,2-3.1,2-4.9c0-1.8-0.8-3.5-2.1-4.7C14-0.3,10.1-0.5,7.3,1.7c-1.4,1-2.4,2.7-2.6,4.6C4.6,8,5.2,9.6,6.3,10.7c0.4,0.4,1,0.4,1.3,0C8,10.4,8.2,9.8,7.8,9.3c-0.7-0.8-1-1.8-0.8-2.9c0.1-1.2,0.8-2.4,1.8-3.1c1.7-1.3,4.9-1.4,6.7,0.4c2.1,2.2,1.6,4.9,0.1,6.5C14.1,12,11.5,13,9,11.2c-0.5-0.2-0.9,0-1.1,0.3c-0.2,0.3-0.1,0.6,0.2,0.9c0.9,1,1.7,1.3,2.7,1.4l0,1.1c-2.9-0.5-5-2.4-6-5.6C4.6,9,4.3,8.9,4,9C3.7,9,3.5,9.3,3.5,9.5c0,4.3,3.6,7.2,7.3,7.8l0,1.2c-0.4,0-1.1,0.1-1.6,0.1c-0.3,0-0.6,0.3-0.6,0.6c0,0.3,0.2,0.6,0.5,0.6C9.7,20,10.3,20,10.8,20c0,0.8,0.1,1.4,0.3,2.5c0,0.3,0.3,0.5,0.7,0.5c0.1,0,0.2,0,0.3-0.1c0.2-0.1,0.3-0.3,0.3-0.4c0.1-0.7,0.1-1.2,0.1-1.7c0-0.2,0-0.4,0-0.7c0,0,0,0,0,0c0.5,0,1.1,0,1.7-0.1c0.4-0.1,0.6-0.5,0.5-0.9c-0.1-0.3-0.3-0.6-0.6-0.6c-0.5-0.1-1.1-0.1-1.6-0.1c0-0.2,0-0.3,0-0.5c0-0.2,0-0.4,0-0.6c3.6-0.6,7.2-3.6,7.3-7.6L20,9.5L20,9.5z"/></svg>